<?xml version="1.0" encoding="UTF-8"?>
<svg xmlns="http://www.w3.org/2000/svg" xmlns:xlink="http://www.w3.org/1999/xlink" width="197pt" height="23pt" viewBox="0 0 197 23" version="1.1">
<g id="surface1">
<path style=" stroke:none;fill-rule:nonzero;fill:rgb(13.72549%,12.156863%,12.54902%);fill-opacity:1;" d="M 11.964844 13.078125 C 12.699219 14.511719 13.433594 15.949219 14.210938 17.300781 L 14.292969 17.300781 C 15.148438 15.867188 15.964844 14.265625 16.78125 12.667969 L 19.800781 6.765625 C 21.269531 3.976562 22.164062 2.253906 22.246094 0.859375 C 23.347656 0.941406 24 0.941406 24.65625 0.941406 C 25.46875 0.941406 26.53125 0.902344 27.511719 0.859375 C 27.714844 1.023438 27.714844 1.515625 27.550781 1.640625 L 26.859375 1.679688 C 24.816406 1.886719 24.574219 2.460938 24.613281 4.59375 C 24.695312 7.871094 24.695312 13.570312 24.980469 18 C 25.0625 19.554688 25.0625 20.335938 26.570312 20.5 L 27.59375 20.582031 C 27.796875 20.785156 27.753906 21.238281 27.511719 21.359375 C 26.203125 21.277344 24.859375 21.277344 23.714844 21.277344 C 22.574219 21.277344 21.144531 21.320312 19.800781 21.359375 C 19.554688 21.195312 19.554688 20.785156 19.71875 20.582031 L 20.65625 20.5 C 22.246094 20.335938 22.246094 19.84375 22.246094 17.875 L 22.164062 5.042969 L 22.085938 5.042969 C 21.839844 5.371094 20.617188 7.832031 20.003906 9.0625 L 17.148438 14.472656 C 15.679688 17.179688 14.25 20.089844 13.679688 21.484375 C 13.597656 21.566406 13.476562 21.605469 13.351562 21.605469 C 13.273438 21.605469 13.109375 21.566406 13.066406 21.484375 C 12.539062 19.84375 10.988281 16.851562 10.210938 15.332031 L 7.316406 9.386719 C 6.621094 7.953125 5.96875 6.355469 5.234375 4.960938 L 5.152344 4.960938 C 5.03125 6.886719 4.910156 8.652344 4.828125 10.453125 C 4.746094 12.339844 4.582031 15.085938 4.582031 17.710938 C 4.582031 20.007812 4.785156 20.5 6.050781 20.582031 L 7.273438 20.664062 C 7.519531 20.867188 7.476562 21.359375 7.234375 21.441406 C 6.132812 21.359375 4.867188 21.359375 3.644531 21.359375 C 2.625 21.359375 1.441406 21.402344 0.339844 21.441406 C 0.136719 21.277344 0.09375 20.828125 0.257812 20.664062 L 1.03125 20.539062 C 2.378906 20.375 2.828125 20.171875 3.03125 18 C 3.234375 15.949219 3.398438 14.265625 3.5625 11.234375 C 3.765625 8.691406 3.886719 6.066406 3.929688 4.386719 C 4.011719 2.460938 3.726562 2.050781 1.765625 1.722656 L 1.277344 1.640625 C 1.113281 1.476562 1.15625 1.023438 1.398438 0.902344 C 2.378906 0.984375 3.152344 0.984375 3.929688 0.984375 C 4.664062 0.984375 5.5625 0.984375 6.621094 0.902344 C 6.5 2.089844 7.316406 4.019531 8.292969 5.984375 Z M 11.964844 13.078125 "/>
<path style=" stroke:none;fill-rule:nonzero;fill:rgb(13.72549%,12.156863%,12.54902%);fill-opacity:1;" d="M 32.976562 5.65625 C 32.976562 2.378906 32.894531 1.886719 31.019531 1.722656 L 30.203125 1.679688 C 30 1.558594 30.082031 0.984375 30.285156 0.902344 C 31.875 0.941406 32.976562 0.984375 34.363281 0.984375 C 35.671875 0.984375 36.730469 0.941406 38.363281 0.902344 C 38.527344 0.984375 38.566406 1.515625 38.363281 1.640625 L 37.546875 1.679688 C 35.628906 1.84375 35.589844 2.378906 35.589844 5.617188 L 35.589844 16.605469 C 35.589844 19.882812 35.671875 20.292969 37.546875 20.5 L 38.363281 20.582031 C 38.566406 20.703125 38.484375 21.238281 38.28125 21.359375 C 36.648438 21.277344 35.589844 21.277344 34.28125 21.277344 C 32.9375 21.277344 31.835938 21.320312 30.203125 21.359375 C 30 21.277344 29.957031 20.785156 30.121094 20.582031 L 30.9375 20.5 C 32.855469 20.292969 32.894531 19.84375 32.894531 16.605469 L 32.894531 5.65625 Z M 32.976562 5.65625 "/>
<path style=" stroke:none;fill-rule:nonzero;fill:rgb(13.72549%,12.156863%,12.54902%);fill-opacity:1;" d="M 45.21875 3.117188 C 47.582031 1.351562 50.5625 0.492188 53.90625 0.492188 C 55.660156 0.492188 58.109375 0.820312 59.617188 1.230469 C 59.984375 1.3125 60.230469 1.394531 60.515625 1.351562 C 60.558594 2.050781 60.71875 4.019531 60.964844 5.863281 C 60.800781 6.066406 60.3125 6.109375 60.109375 5.902344 C 59.617188 3.8125 58.191406 1.394531 53.5 1.394531 C 48.5625 1.394531 44.359375 4.386719 44.359375 10.742188 C 44.359375 17.21875 48.644531 20.785156 53.949219 20.785156 C 58.109375 20.785156 59.945312 18.203125 60.679688 16.398438 C 60.925781 16.234375 61.375 16.316406 61.535156 16.523438 C 61.292969 18.121094 60.476562 20.171875 59.984375 20.746094 C 59.578125 20.828125 59.210938 20.949219 58.84375 21.074219 C 58.148438 21.320312 55.824219 21.769531 53.742188 21.769531 C 50.847656 21.769531 48.074219 21.195312 45.707031 19.71875 C 43.136719 18.039062 41.136719 15.210938 41.136719 11.234375 C 41.136719 7.832031 42.769531 4.917969 45.21875 3.117188 "/>
<path style=" stroke:none;fill-rule:nonzero;fill:rgb(13.72549%,12.156863%,12.54902%);fill-opacity:1;" d="M 112.085938 5.617188 C 112.085938 2.378906 112.003906 1.886719 110.003906 1.722656 L 109.148438 1.640625 C 108.945312 1.515625 109.027344 0.941406 109.230469 0.859375 C 111.023438 0.941406 112.125 0.941406 113.433594 0.941406 C 114.695312 0.941406 115.796875 0.902344 117.390625 0.859375 C 117.59375 0.941406 117.632812 1.515625 117.472656 1.640625 L 116.695312 1.679688 C 114.777344 1.84375 114.738281 2.335938 114.738281 5.574219 L 114.738281 16.316406 C 114.738281 18.246094 114.820312 19.0625 115.429688 19.636719 C 115.796875 19.964844 116.410156 20.335938 118.941406 20.335938 C 121.671875 20.335938 122.367188 20.210938 122.855469 19.925781 C 123.507812 19.554688 124.324219 18.449219 124.976562 16.890625 C 125.183594 16.726562 125.792969 16.851562 125.792969 17.054688 C 125.792969 17.382812 124.898438 20.539062 124.449219 21.359375 C 122.816406 21.277344 119.757812 21.277344 116.410156 21.277344 L 113.433594 21.277344 C 112.085938 21.277344 111.023438 21.320312 109.230469 21.359375 C 109.027344 21.277344 108.984375 20.785156 109.148438 20.582031 L 110.128906 20.5 C 112.003906 20.335938 112.046875 19.882812 112.046875 16.644531 L 112.046875 5.617188 Z M 112.085938 5.617188 "/>
<path style=" stroke:none;fill-rule:nonzero;fill:rgb(13.72549%,12.156863%,12.54902%);fill-opacity:1;" d="M 135.75 6.066406 C 136.117188 5.125 136.441406 4.386719 136.523438 4.265625 L 136.605469 4.265625 C 136.808594 4.632812 137.09375 5.453125 137.339844 6.191406 L 139.09375 11.191406 C 139.378906 12.011719 139.339844 12.136719 138.402344 12.136719 L 134.445312 12.136719 C 133.546875 12.136719 133.503906 12.09375 133.75 11.398438 Z M 141.542969 18.367188 C 141.789062 19.105469 141.949219 19.679688 141.949219 20.007812 C 141.949219 20.335938 141.5 20.5 140.808594 20.582031 L 139.871094 20.664062 C 139.625 20.828125 139.664062 21.320312 139.953125 21.441406 C 140.890625 21.402344 142.113281 21.359375 143.664062 21.359375 C 145.132812 21.359375 146.234375 21.402344 147.582031 21.441406 C 147.742188 21.320312 147.824219 20.828125 147.582031 20.664062 L 146.722656 20.582031 C 145.335938 20.417969 144.929688 19.964844 143.992188 17.300781 L 139.585938 4.917969 C 139.09375 3.566406 138.5625 2.132812 138.15625 0.777344 C 138.074219 0.574219 137.871094 0.492188 137.667969 0.492188 L 136.441406 0.613281 C 136.648438 1.230469 135.914062 2.746094 135.464844 3.855469 L 132.160156 12.175781 C 130.8125 15.621094 129.914062 17.628906 129.304688 19.0625 C 128.855469 20.171875 128.160156 20.5 127.386719 20.582031 L 126.324219 20.664062 C 126.121094 20.828125 126.203125 21.320312 126.40625 21.441406 C 127.261719 21.402344 128.445312 21.359375 129.507812 21.359375 C 131.015625 21.402344 132.035156 21.402344 132.851562 21.441406 C 133.136719 21.320312 133.136719 20.828125 132.933594 20.664062 L 131.875 20.582031 C 131.097656 20.5 130.933594 20.335938 130.933594 19.964844 C 130.933594 19.636719 131.179688 18.777344 131.628906 17.425781 L 132.769531 14.183594 C 133.015625 13.53125 133.179688 13.449219 133.996094 13.449219 L 138.851562 13.449219 C 139.828125 13.449219 139.953125 13.53125 140.15625 14.226562 Z M 141.542969 18.367188 "/>
<path style=" stroke:none;fill-rule:nonzero;fill:rgb(13.72549%,12.156863%,12.54902%);fill-opacity:1;" d="M 169.328125 16.070312 C 169.328125 17.015625 169.328125 20.664062 169.40625 21.484375 C 169.328125 21.648438 169.164062 21.8125 168.796875 21.8125 C 168.429688 21.277344 167.492188 20.210938 164.675781 17.179688 L 157.210938 9.019531 C 156.351562 8.078125 154.148438 5.535156 153.457031 4.878906 L 153.375 4.878906 C 153.25 5.246094 153.210938 5.945312 153.210938 6.886719 L 153.210938 13.613281 C 153.210938 15.046875 153.292969 19.0625 153.78125 20.007812 C 153.984375 20.335938 154.640625 20.539062 155.414062 20.582031 L 156.394531 20.664062 C 156.597656 20.910156 156.554688 21.277344 156.3125 21.441406 C 154.84375 21.359375 153.742188 21.359375 152.558594 21.359375 C 151.210938 21.359375 150.3125 21.402344 149.210938 21.441406 C 148.96875 21.277344 148.96875 20.867188 149.132812 20.664062 L 149.988281 20.582031 C 150.722656 20.539062 151.253906 20.292969 151.414062 19.964844 C 151.863281 18.859375 151.824219 15.085938 151.824219 13.613281 L 151.824219 4.671875 C 151.824219 3.8125 151.78125 3.15625 151.128906 2.460938 C 150.679688 2.007812 149.90625 1.804688 149.132812 1.722656 L 148.683594 1.640625 C 148.476562 1.433594 148.476562 0.984375 148.765625 0.859375 C 150.109375 0.941406 151.824219 0.941406 152.394531 0.941406 C 152.925781 0.941406 153.457031 0.902344 153.863281 0.859375 C 154.515625 2.417969 158.351562 6.476562 159.371094 7.625 L 162.511719 10.988281 C 164.714844 13.40625 166.308594 15.085938 167.816406 16.5625 L 167.898438 16.5625 C 168.019531 16.398438 168.019531 15.90625 168.019531 15.25 L 168.019531 8.734375 C 168.019531 7.296875 167.980469 3.28125 167.367188 2.335938 C 167.164062 2.050781 166.675781 1.886719 165.367188 1.722656 L 164.839844 1.640625 C 164.59375 1.433594 164.632812 0.941406 164.921875 0.859375 C 166.390625 0.941406 167.492188 0.941406 168.714844 0.941406 C 170.101562 0.941406 170.957031 0.902344 172.019531 0.859375 C 172.265625 1.023438 172.265625 1.433594 172.101562 1.640625 L 171.652344 1.679688 C 170.632812 1.84375 169.980469 2.089844 169.855469 2.335938 C 169.328125 3.445312 169.367188 7.257812 169.367188 8.691406 L 169.367188 16.070312 Z M 169.328125 16.070312 "/>
<path style=" stroke:none;fill-rule:nonzero;fill:rgb(13.72549%,12.156863%,12.54902%);fill-opacity:1;" d="M 179.894531 4.632812 C 179.894531 3.238281 179.976562 2.460938 180.21875 2.296875 C 180.464844 2.089844 181.523438 1.84375 183.402344 1.84375 C 191.847656 1.84375 193.558594 7.585938 193.558594 10.945312 C 193.558594 16.6875 190.746094 20.582031 184.503906 20.582031 C 182.464844 20.582031 181.238281 20.253906 180.546875 19.308594 C 180.015625 18.570312 179.894531 17.589844 179.894531 15.949219 Z M 177.242188 16.6875 C 177.242188 19.925781 177.160156 20.292969 175.324219 20.539062 L 174.589844 20.621094 C 174.386719 20.785156 174.46875 21.277344 174.671875 21.402344 C 176.179688 21.320312 177.363281 21.320312 178.710938 21.320312 C 179.851562 21.320312 181.890625 21.566406 183.972656 21.566406 C 186.460938 21.566406 189.113281 21.15625 191.195312 20.089844 C 194.867188 18.164062 196.824219 14.839844 196.824219 10.90625 C 196.824219 6.847656 194.621094 3.320312 190.296875 1.804688 C 188.214844 1.066406 185.929688 0.859375 183.199219 0.859375 C 180.464844 0.859375 177.851562 0.941406 175.121094 1.105469 C 174.792969 1.230469 174.835938 1.722656 175.078125 1.886719 L 175.773438 1.96875 C 177.117188 2.171875 177.28125 2.789062 177.28125 4.960938 L 177.28125 16.6875 Z M 177.242188 16.6875 "/>
<path style=" stroke:none;fill-rule:nonzero;fill:rgb(91.764706%,15.294118%,16.470588%);fill-opacity:1;" d="M 108.535156 12.957031 C 108.535156 12.832031 108.578125 12.710938 108.578125 12.585938 C 108.578125 12.382812 108.617188 12.175781 108.617188 11.972656 C 108.617188 11.726562 108.617188 11.519531 108.617188 11.273438 C 108.617188 11.109375 108.617188 10.988281 108.578125 10.824219 C 108.578125 10.535156 108.535156 10.25 108.496094 9.960938 C 108.496094 9.839844 108.453125 9.714844 108.453125 9.59375 C 108.414062 9.304688 108.332031 8.980469 108.292969 8.691406 C 108.25 8.570312 108.25 8.445312 108.210938 8.324219 C 108.128906 8.078125 108.046875 7.832031 107.964844 7.585938 C 107.882812 7.421875 107.84375 7.257812 107.761719 7.050781 C 107.71875 6.929688 107.679688 6.847656 107.597656 6.722656 C 105.84375 2.789062 101.84375 0 97.195312 0 C 94.5 0 92.011719 0.941406 90.054688 2.542969 C 89.972656 2.625 89.851562 2.707031 89.769531 2.789062 C 89.566406 2.953125 89.359375 3.117188 89.199219 3.320312 C 88.871094 3.648438 88.546875 4.019531 88.257812 4.386719 C 88.21875 4.46875 88.136719 4.511719 88.097656 4.59375 C 87.445312 5.453125 86.953125 6.394531 86.546875 7.339844 C 86.546875 7.378906 86.503906 7.421875 86.503906 7.460938 C 86.34375 7.953125 86.179688 8.40625 86.054688 8.898438 C 86.054688 8.9375 86.054688 8.9375 86.015625 8.980469 C 85.894531 9.46875 85.8125 9.960938 85.769531 10.496094 C 85.769531 10.578125 85.769531 10.660156 85.769531 10.78125 C 85.730469 11.152344 85.730469 11.5625 85.769531 11.929688 C 85.769531 12.09375 85.769531 12.257812 85.8125 12.382812 C 85.851562 12.75 85.894531 13.160156 85.976562 13.53125 C 85.976562 13.613281 86.015625 13.695312 86.015625 13.777344 C 86.097656 13.734375 97.113281 2.625 97.113281 2.625 L 97.113281 4.019531 L 86.300781 14.839844 C 86.421875 15.210938 86.546875 15.578125 86.710938 15.90625 L 97.152344 5.410156 L 97.152344 6.847656 L 87.117188 16.890625 C 87.28125 17.179688 87.445312 17.464844 87.648438 17.753906 L 97.070312 8.199219 L 97.070312 9.632812 L 88.136719 18.53125 C 88.339844 18.777344 88.503906 19.023438 88.707031 19.226562 L 97.03125 10.863281 L 97.03125 11.519531 L 97.683594 11.519531 L 89.359375 19.882812 C 89.523438 20.007812 89.648438 20.171875 89.808594 20.292969 C 89.933594 20.375 89.972656 20.417969 90.015625 20.457031 C 90.015625 20.457031 90.054688 20.5 90.054688 20.5 L 98.949219 11.519531 L 100.375 11.519531 L 90.828125 21.074219 C 91.117188 21.277344 91.402344 21.441406 91.6875 21.605469 L 101.640625 11.519531 L 103.070312 11.519531 L 92.664062 22.058594 C 92.992188 22.222656 93.359375 22.34375 93.6875 22.425781 L 104.496094 11.480469 L 105.882812 11.480469 L 94.789062 22.714844 C 95.5625 22.878906 96.335938 22.960938 97.195312 22.960938 C 103.027344 23 107.84375 18.613281 108.535156 12.957031 "/>
<path style=" stroke:none;fill-rule:nonzero;fill:rgb(13.72549%,12.156863%,12.54902%);fill-opacity:1;" d="M 70.0625 2.871094 C 70.0625 2.007812 70.1875 1.886719 72.390625 1.886719 C 76.347656 1.886719 78.101562 4.183594 78.101562 6.601562 C 78.101562 8.691406 77.285156 9.757812 76.304688 10.414062 C 75.285156 11.070312 73.898438 11.191406 72.632812 11.191406 C 70.796875 11.191406 70.265625 11.152344 70.144531 11.027344 C 70.023438 10.90625 70.023438 10.578125 70.023438 10.003906 L 70.023438 2.871094 Z M 67.125 16.644531 C 67.125 19.84375 67.042969 20.253906 64.964844 20.457031 L 64.066406 20.539062 C 63.863281 20.746094 63.902344 21.195312 64.148438 21.320312 C 65.820312 21.277344 67.125 21.238281 68.636719 21.238281 C 70.0625 21.238281 71.289062 21.277344 72.878906 21.320312 C 73.082031 21.238281 73.164062 20.703125 72.960938 20.539062 L 72.226562 20.457031 C 70.144531 20.210938 70.0625 19.84375 70.0625 16.644531 L 70.0625 12.792969 C 70.0625 12.136719 70.144531 12.136719 71.734375 12.136719 C 73.164062 12.136719 73.734375 12.421875 74.265625 13.121094 C 75.367188 14.511719 76.835938 16.605469 77.773438 17.753906 C 80.304688 20.828125 83.773438 21.605469 86.789062 21.605469 C 87.484375 21.605469 88.054688 21.566406 88.382812 21.441406 C 88.546875 21.320312 88.503906 21.074219 88.339844 21.03125 C 87.363281 20.949219 86.75 20.910156 86.015625 20.582031 C 83.117188 19.308594 80.671875 18.449219 77.082031 12.054688 C 76.917969 11.808594 76.714844 11.519531 76.917969 11.316406 C 78.710938 10.699219 81.40625 9.101562 81.40625 6.191406 C 81.40625 4.058594 80.140625 2.664062 78.425781 1.886719 C 76.796875 1.105469 74.671875 0.984375 72.429688 0.984375 C 68.921875 0.984375 66.433594 1.066406 64.433594 1.230469 C 64.148438 1.351562 64.148438 1.84375 64.390625 2.007812 L 65.535156 2.132812 C 67.003906 2.296875 67.125 2.789062 67.125 5.699219 Z M 67.125 16.644531 "/>
</g>
</svg>
