<?xml version="1.0" encoding="UTF-8" standalone="no"?>
<svg
   version="1.1"
   width="732.80457"
   height="134.097"
   viewBox="0 0 732.80458 134.097"
   id="svg13"
   sodipodi:docname="PepsiCo_(2025 wordmark).svg"
   xml:space="preserve"
   inkscape:version="1.2.2 (b0a8486541, 2022-12-01)"
   xmlns:inkscape="http://www.inkscape.org/namespaces/inkscape"
   xmlns:sodipodi="http://sodipodi.sourceforge.net/DTD/sodipodi-0.dtd"
   xmlns="http://www.w3.org/2000/svg"
   xmlns:svg="http://www.w3.org/2000/svg"><defs
     id="defs13"><inkscape:path-effect
       effect="spiro"
       id="path-effect10"
       is_visible="true"
       lpeversion="1" /></defs><sodipodi:namedview
     id="namedview13"
     pagecolor="#ffffff"
     bordercolor="#000000"
     borderopacity="0.25"
     inkscape:showpageshadow="2"
     inkscape:pageopacity="0.0"
     inkscape:pagecheckerboard="0"
     inkscape:deskcolor="#d1d1d1"
     inkscape:zoom="0.815"
     inkscape:cx="615.33742"
     inkscape:cy="9.8159509"
     inkscape:window-width="1366"
     inkscape:window-height="683"
     inkscape:window-x="0"
     inkscape:window-y="0"
     inkscape:window-maximized="1"
     inkscape:current-layer="svg13"
     showgrid="false" /><g
     fill="#03345a"
     id="g5"
     transform="matrix(2.6026385,0,0,2.6026385,-258.23096,-584.72253)"
     style="mix-blend-mode:normal;fill-rule:nonzero;stroke:none;stroke-linecap:round;stroke-linejoin:round;stroke-miterlimit:10;stroke-dasharray:none;stroke-dashoffset:0"><path
       d="m 232.56849,242.69024 c 0,13.443 -5.63456,21.87279 -16.35209,21.87279 -3.96105,0 -7.59476,-1.9146 -10.246,-5.34422 l 10e-6,16.96978 h -10.9569 c -2.72532,2.3e-4 -4.93488,-2.20877 -4.93533,-4.93409 v -16.8256 c -5.05958,5.63671 -10.45782,8.16989 -17.37494,9.42323 -13.19137,2.3902 -21.17492,-4.15529 -23.12434,-6.10609 -1.18428,-1.18512 -2.12978,-2.67799 -3.13445,-4.2642 -2.92744,-4.62194 -1.85911,-10.43621 -1.53988,-13.29717 0.80767,-7.23842 7.65546,-14.51143 18.33318,-15.39137 1.33471,-0.10999 2.65544,-0.14767 3.94603,-0.11185 9.0341,0.25065 16.59694,4.08147 17.21711,11.60691 0.80514,9.7699 -8.38431,13.00179 -15.64864,13.60043 -1.87545,0.15455 -5.91225,0.0529 -8.37428,-0.39025 0,0 1.71201,5.58187 11.59075,4.21697 3.02745,-0.41829 18.10947,-4.24987 18.10946,-17.27925 v -10.76799 h 10.37152 c 2.69476,0.002 4.99417,1.94958 5.43993,4.60722 2.52897,-3.4358 6.06905,-5.6102 10.32678,-5.61019 10.04839,0 16.35208,8.42951 16.35208,18.02495 z m -72.98719,-0.96569 c 1.5786,0.34789 3.95849,0.62252 7.68823,0.0311 1.81446,-0.28773 5.47845,-1.44751 5.47845,-4.02184 0,-1.60055 -1.18004,-3.15682 -5.28084,-3.15682 -4.5245,0 -7.88584,2.77457 -7.88584,7.14758 z m 45.93423,2.71562 c 0,5.51643 2.35545,9.63079 5.64872,9.63079 3.29328,0 5.5232,-4.11436 5.5232,-9.63079 0,-6.16281 -2.22992,-9.79982 -5.5232,-9.79982 -3.29327,0 -5.64872,4.00622 -5.64872,9.79982 z"
       stroke-width="18.0506"
       id="path1" /><path
       d="m 358.80639,224.87285 c 12.13622,0 21.9747,8.22996 21.9747,19.83702 0,10.95587 -9.42396,19.7786 -21.91505,19.7786 -9.21655,0 -16.62952,-4.51633 -19.88549,-11.7113 -3.97093,5.4733 -10.16901,9.88955 -16.71127,11.07497 -13.19138,2.3902 -21.17493,-4.15529 -23.12434,-6.10609 -1.18428,-1.18512 -2.12979,-2.67799 -3.13445,-4.26419 -2.92744,-4.62194 -1.85911,-10.43622 -1.53988,-13.29718 0.80768,-7.23842 7.06386,-14.1858 17.74158,-15.06574 1.31309,-0.0942 3.22074,-0.15831 4.53762,-0.11186 9.0341,0.25065 15.64988,4.3717 15.64988,11.28129 0,2.79281 -3.01645,5.3927 -5.1665,5.3927 h -4.78867 c -0.90801,0 -1.02038,-0.56526 -1.02038,-0.93462 0,-3.46397 -2.02456,-6.16948 -4.68427,-6.16948 -4.29448,0 -6.6141,3.77817 -6.82321,7.73297 -0.35763,6.76385 2.28247,12.56167 12.16122,11.19677 2.83303,-0.39143 11.40834,-3.2342 15.76297,-14.31009 0.21709,-0.79921 0.49131,-1.57078 0.80909,-2.3179 0.008,-0.0266 0.0167,-0.0516 0.0249,-0.0783 0,0 0.005,0.007 0.005,0.007 3.12377,-7.2572 10.84647,-11.93502 20.1266,-11.93502 z m -5.45718,19.81961 c 0,5.63517 2.06374,9.49408 5.55427,9.49408 3.49052,0 5.46478,-3.85891 5.46478,-9.49408 0,-6.29547 -1.97425,-9.62085 -5.46478,-9.62085 -3.49052,0 -5.55427,3.70254 -5.55427,9.62085 z"
       stroke-width="18.0506"
       id="path2" /><path
       d="m 141.70922,242.69024 c 0,13.443 -5.63456,21.8728 -16.35208,21.8728 -3.96105,0 -7.59476,-1.91461 -10.246,-5.34423 v 16.96978 h -10.9569 c -2.72532,2.4e-4 -4.93488,-2.20877 -4.93533,-4.93408 v -45.58624 h 10.37152 c 2.69476,0.002 4.99416,1.94959 5.43992,4.60722 2.52897,-3.4358 6.06905,-5.6102 10.32678,-5.6102 10.04838,0 16.35208,8.42951 16.35208,18.02495 z m -27.05307,1.74992 c 0,5.51643 2.35547,9.63111 5.64875,9.63111 3.29328,0 5.52339,-4.11468 5.52339,-9.63111 0,-6.16281 -2.23004,-9.7994 -5.52332,-9.7994 -3.29328,0 -5.64882,4.0058 -5.64882,9.7994 z"
       stroke-width="17.468"
       id="path3" /><path
       d="m 285.36662,225.66826 c 3.04908,-1.7e-4 5.52089,2.47164 5.52071,5.52071 v 32.11549 h -10.9569 c -2.72532,2.4e-4 -4.93488,-2.20877 -4.93533,-4.93408 v -32.70213 z"
       stroke-width="17.468"
       id="path4" /><path
       d="m 253.6174,254.60935 c 1.99675,-0.3609 2.82606,-3.20917 -0.43913,-4.08407 -9.13798,-2.3232 -18.25638,-4.81273 -18.25638,-13.21715 0,-13.49354 21.72182,-14.19642 28.72598,-11.09039 2.98639,1.34362 4.71237,2.23466 5.78612,4.58188 1.30849,2.86036 -0.39005,6.94736 -2.90046,8.46395 -4.36194,-4.1536 -11.78632,-4.73115 -13.74808,-4.23815 -1.8262,0.52563 -2.6382,1.91912 -1.18841,3.00237 3.18393,2.26892 10.2378,1.07321 16.14387,6.06407 4.10066,3.64722 4.82654,9.18701 1.09329,14.40962 -3.51069,4.91126 -21.2667,10.2937 -35.83536,0.73844 l 4.68165,-8.89821 c 5.98535,4.29966 10.56663,5.20761 15.9369,4.26765 z"
       stroke-width="17.133"
       id="path5" /></g></svg>
