<?xml version="1.0" encoding="UTF-8" standalone="no"?>
<!-- Created with Inkscape (http://www.inkscape.org/) -->

<svg
   width="43.790649mm"
   height="17.096985mm"
   viewBox="0 0 43.790649 17.096985"
   version="1.1"
   id="svg1"
   inkscape:version="1.4.2 (f4327f4, 2025-05-13)"
   sodipodi:docname="Hotel Logo.svg"
   xmlns:inkscape="http://www.inkscape.org/namespaces/inkscape"
   xmlns:sodipodi="http://sodipodi.sourceforge.net/DTD/sodipodi-0.dtd"
   xmlns="http://www.w3.org/2000/svg"
   xmlns:svg="http://www.w3.org/2000/svg">
  <sodipodi:namedview
     id="namedview1"
     pagecolor="#ffffff"
     bordercolor="#000000"
     borderopacity="0.25"
     inkscape:showpageshadow="2"
     inkscape:pageopacity="0.0"
     inkscape:pagecheckerboard="0"
     inkscape:deskcolor="#d1d1d1"
     inkscape:document-units="mm"
     inkscape:zoom="0.77771465"
     inkscape:cx="82.292394"
     inkscape:cy="32.788376"
     inkscape:window-width="1920"
     inkscape:window-height="1111"
     inkscape:window-x="-9"
     inkscape:window-y="1341"
     inkscape:window-maximized="1"
     inkscape:current-layer="layer1" />
  <defs
     id="defs1">
    <clipPath
       clipPathUnits="userSpaceOnUse"
       id="clipPath67-4-4">
      <path
         d="m 918.075,90.495 h 124.132 v 63.332 H 918.075 Z"
         transform="translate(-980.23862,-124.70861)"
         id="path67-8-8" />
    </clipPath>
    <clipPath
       clipPathUnits="userSpaceOnUse"
       id="clipPath69-8-8">
      <path
         d="m 918.075,90.495 h 124.132 v 63.332 H 918.075 Z"
         transform="translate(-1040.783,-107.88171)"
         id="path69-2-2" />
    </clipPath>
    <clipPath
       clipPathUnits="userSpaceOnUse"
       id="clipPath71-4-4">
      <path
         d="m 918.075,90.495 h 124.132 v 63.332 H 918.075 Z"
         transform="translate(-1029.3883,-105.6921)"
         id="path71-5-5" />
    </clipPath>
    <clipPath
       clipPathUnits="userSpaceOnUse"
       id="clipPath73-5-5">
      <path
         d="m 918.075,90.495 h 124.132 v 63.332 H 918.075 Z"
         transform="translate(-1020.2625,-106.48581)"
         id="path73-1-1" />
    </clipPath>
    <clipPath
       clipPathUnits="userSpaceOnUse"
       id="clipPath75-7-7">
      <path
         d="m 918.075,90.495 h 124.132 v 63.332 H 918.075 Z"
         transform="translate(-1011.7854,-106.48581)"
         id="path75-1-1" />
    </clipPath>
    <clipPath
       clipPathUnits="userSpaceOnUse"
       id="clipPath77-1-1">
      <path
         d="m 918.075,90.495 h 124.132 v 63.332 H 918.075 Z"
         transform="translate(-1005.4932,-109.2773)"
         id="path77-5-5" />
    </clipPath>
    <clipPath
       clipPathUnits="userSpaceOnUse"
       id="clipPath79-2-2">
      <path
         d="m 918.075,90.495 h 124.132 v 63.332 H 918.075 Z"
         transform="translate(-994.98962,-107.77211)"
         id="path79-7-7" />
    </clipPath>
    <clipPath
       clipPathUnits="userSpaceOnUse"
       id="clipPath81-6-6">
      <path
         d="m 918.075,90.495 h 124.132 v 63.332 H 918.075 Z"
         transform="translate(-991.54277,-107.9772)"
         id="path81-1-1" />
    </clipPath>
    <clipPath
       clipPathUnits="userSpaceOnUse"
       id="clipPath83-4-4">
      <path
         d="m 918.075,90.495 h 124.132 v 63.332 H 918.075 Z"
         transform="translate(-969.8479,-105.5552)"
         id="path83-2-2" />
    </clipPath>
    <clipPath
       clipPathUnits="userSpaceOnUse"
       id="clipPath85-3-3">
      <path
         d="m 918.075,90.495 h 124.132 v 63.332 H 918.075 Z"
         transform="translate(-964.39787,-106.48581)"
         id="path85-2-2" />
    </clipPath>
    <clipPath
       clipPathUnits="userSpaceOnUse"
       id="clipPath87-2-2">
      <path
         d="m 918.075,90.495 h 124.132 v 63.332 H 918.075 Z"
         transform="translate(-958.01755,-106.48581)"
         id="path87-1-1" />
    </clipPath>
    <clipPath
       clipPathUnits="userSpaceOnUse"
       id="clipPath89-6-6">
      <path
         d="m 918.075,90.495 h 124.132 v 63.332 H 918.075 Z"
         transform="translate(-951.56372,-109.2773)"
         id="path89-8-8" />
    </clipPath>
    <clipPath
       clipPathUnits="userSpaceOnUse"
       id="clipPath91-5-5">
      <path
         d="m 918.075,90.495 h 124.132 v 63.332 H 918.075 Z"
         transform="translate(-937.11797,-106.48581)"
         id="path91-7-7" />
    </clipPath>
    <clipPath
       clipPathUnits="userSpaceOnUse"
       id="clipPath93-6-6">
      <path
         d="m 918.075,90.495 h 124.132 v 63.332 H 918.075 Z"
         transform="translate(-932.46842,-106.48581)"
         id="path93-1-1" />
    </clipPath>
    <clipPath
       clipPathUnits="userSpaceOnUse"
       id="clipPath95-8-8">
      <path
         d="m 918.075,90.495 h 124.132 v 63.332 H 918.075 Z"
         transform="translate(-920.935,-106.48581)"
         id="path95-9-9" />
    </clipPath>
    <clipPath
       clipPathUnits="userSpaceOnUse"
       id="clipPath97-2-2">
      <path
         d="m 918.075,90.495 h 124.132 v 63.332 H 918.075 Z"
         transform="translate(-978.97525,-108.56631)"
         id="path97-7-7" />
    </clipPath>
  </defs>
  <g
     inkscape:label="Layer 1"
     inkscape:groupmode="layer"
     id="layer1"
     transform="translate(-83.343742,-139.96458)">
    <g
       id="g121"
       transform="matrix(0.26458333,0,0,0.26458333,-137.58333,26.193751)">
      <path
         id="path66"
         d="m 0,0 c -3.824,0 -6.373,0.049 -6.373,0.049 l -0.539,2.059 c 0,0 3.481,0.49 6.912,0.49 3.431,0 6.912,-0.49 6.912,-0.49 L 6.373,0.049 C 6.373,0.049 3.823,0 0,0 M 9.755,7.745 9.608,7.794 C 9.412,7.5 8.725,6.863 7.697,6.863 L 7.648,6.765 C 8.088,6.324 7.99,5.343 7.451,5.343 c -0.343,0 -0.49,0.294 -0.539,0.54 L 6.814,5.932 C 6.667,5.834 6.275,5.539 6.177,5.441 6.177,5.147 6.226,4.755 6.275,4.51 h 0.098 c 0.098,0.196 0.294,0.245 0.392,0.245 0.245,0 0.441,-0.196 0.441,-0.49 0,-0.49 -0.343,-0.932 -1.029,-0.932 -0.736,0 -1.373,0.344 -1.373,1.128 0,0.392 0.196,0.833 0.735,1.078 V 5.637 C 5.147,5.932 4.804,6.422 4.706,6.667 H 4.608 C 4.461,6.471 3.97,6.03 3.529,5.932 V 5.834 C 3.921,5.441 3.97,5.049 3.97,4.804 3.97,4.167 3.431,3.775 2.304,3.775 c -0.833,0 -1.667,0.245 -1.667,1.078 0,0.441 0.294,0.686 0.638,0.686 0.245,0 0.539,-0.098 0.735,-0.392 H 2.108 C 2.304,5.392 2.402,5.539 2.745,5.834 V 5.932 C 2.598,6.03 2.353,6.324 2.108,6.667 H 2.01 C 1.667,6.275 1.422,6.226 1.128,6.226 c -0.197,0 -0.491,0.098 -0.491,0.441 0,0.441 0.54,0.637 0.981,0.784 V 7.549 C 0.882,7.843 0.196,8.628 0.049,9.118 H -0.049 C -0.196,8.628 -0.883,7.843 -1.618,7.549 V 7.451 c 0.441,-0.147 0.98,-0.343 0.98,-0.784 0,-0.343 -0.294,-0.441 -0.49,-0.441 -0.294,0 -0.539,0.049 -0.882,0.441 H -2.108 C -2.353,6.324 -2.598,6.03 -2.745,5.932 V 5.834 c 0.343,-0.295 0.441,-0.442 0.637,-0.687 h 0.098 c 0.196,0.294 0.49,0.392 0.735,0.392 0.343,0 0.637,-0.245 0.637,-0.686 0,-0.833 -0.833,-1.078 -1.666,-1.078 -1.127,0 -1.667,0.392 -1.667,1.029 0,0.245 0.049,0.637 0.442,1.03 V 5.932 C -3.971,6.03 -4.461,6.471 -4.608,6.667 H -4.706 C -4.804,6.422 -5.147,5.932 -5.54,5.637 V 5.539 C -5,5.294 -4.804,4.853 -4.804,4.461 c 0,-0.784 -0.638,-1.128 -1.373,-1.128 -0.686,0 -1.029,0.442 -1.029,0.932 0,0.294 0.196,0.49 0.441,0.49 0.098,0 0.294,-0.049 0.392,-0.245 h 0.098 c 0.049,0.245 0.098,0.637 0.098,0.931 -0.098,0.098 -0.49,0.393 -0.637,0.491 L -6.912,5.883 c -0.049,-0.246 -0.197,-0.54 -0.539,-0.54 -0.539,0 -0.638,0.981 -0.196,1.422 l -0.049,0.098 c -1.03,0 -1.716,0.637 -1.912,0.931 L -9.755,7.745 -7.696,3.039 c 0,0 -0.442,-0.196 -0.343,-0.539 0.195,-0.686 0.784,-1.569 0.784,-2.647 0,-0.441 -0.05,-0.49 -0.05,-0.686 0,-0.196 0.148,-0.294 0.344,-0.294 H 6.961 c 0.196,0 0.343,0.098 0.343,0.294 0,0.196 -0.049,0.245 -0.049,0.686 0,1.078 0.588,1.961 0.784,2.647 0.098,0.343 -0.342,0.539 -0.342,0.539 m -13.874,21.03 c 0.049,-0.098 0.196,-0.196 0.294,-0.196 0.196,0.196 0.392,0.441 0.392,0.687 -0.245,-0.049 -0.686,-0.148 -0.686,-0.491 m 9.461,2.01 0.147,-0.098 c 0,0 0.882,0.392 0.882,1.03 0,0 0,0.343 -0.196,0.539 -0.098,0 -0.098,-0.196 -0.098,-0.294 0,-0.196 -0.147,-0.343 -0.392,-0.343 -0.196,0 -0.539,0.196 -0.539,0.539 0,0.343 0.147,0.49 0.147,0.588 0,0 0,0.049 -0.049,0.049 C 2.402,27.795 2.353,27.452 2.353,27.207 2.353,26.864 2.5,26.52 3.284,26.079 M -7.451,9.167 c 2.304,0 2.255,2.647 2.255,3.529 0,3.971 1.176,4.952 3.921,6.226 2.059,0.981 3.922,1.373 3.922,3.334 0,0.686 -0.196,1.421 -0.98,1.421 0,0 0.294,-0.294 0.294,-0.784 0,-0.196 -0.049,-0.392 -0.147,-0.637 0,0.196 -0.049,0.441 -0.196,0.637 -0.245,-0.392 -0.196,-0.981 -0.343,-1.226 0,0 -0.098,-0.245 -0.785,-0.588 0,0 -0.098,-0.098 0.245,-0.098 0,0 0.834,0 1.128,0.343 -0.245,-0.686 -0.539,-0.931 -0.981,-0.931 -0.245,0 -0.637,0.049 -0.98,0.049 -0.589,0 -1.961,-0.294 -2.5,-1.226 -0.392,-0.637 -1.52,-1.225 -1.912,-1.225 -0.343,0 -0.833,0.784 -0.833,1.127 0,0.392 0.686,0.147 1.225,0.687 0.883,0.882 1.226,1.078 2.157,1.078 0,0 0.539,0 0.049,0.49 l -1.519,1.422 c -0.196,0.196 -0.344,0.294 -0.54,0.294 -0.098,0 -0.294,-0.049 -0.735,-0.441 -0.883,-0.098 -1.226,-0.245 -1.471,-0.392 -0.147,-0.098 -0.245,-0.196 -0.343,-0.196 -0.147,0 -0.343,0.784 -0.343,0.931 0,0.392 0.441,0.637 0.441,0.882 0,0.147 -0.147,0.196 -0.147,0.196 l -0.637,-0.294 c 0,0 -0.343,0.392 0.049,0.588 0,0 0.98,0.54 2.843,1.422 0.098,-0.539 0.245,-0.637 0.687,-0.588 l -0.197,-0.049 -0.098,-0.147 c 0.147,-0.049 0.442,0 0.736,0.098 0.245,0.098 0.539,0.098 0.588,0.147 0.049,0.049 0.196,0.196 0.196,0.245 -0.098,0 -0.392,-0.049 -0.588,-0.098 0.294,0.196 0.441,0.343 0.441,0.441 0,0.049 -0.049,0.098 -0.049,0.098 -0.147,0 -0.245,-0.098 -0.392,-0.049 -0.098,0.049 -0.196,0.147 -0.196,0.294 0,0.098 0.098,0.196 0.441,0.196 H -2.5 c 0,0.196 -0.49,0.294 -0.686,0.294 -0.245,0 -0.589,-0.098 -0.883,-0.245 0,0 0.049,0.393 0.491,0.589 0.245,0.098 1.519,0.245 2.744,0.245 1.765,0 3.089,-1.52 3.334,-1.52 0.098,0 0.196,0.098 0.049,0.196 -0.637,0.441 -1.029,0.784 -1.029,1.226 0,0.147 0,1.078 2.009,1.421 0.883,-0.735 1.177,-1.274 1.177,-1.764 0,-0.834 -0.932,-0.932 -1.03,-1.275 2.304,-0.147 4.021,-3.186 4.021,-4.706 0,-2.745 -2.599,-3.873 -4.217,-4.216 2.353,1.765 3.236,3.53 3.236,4.755 0,2.01 -1.814,3.187 -2.255,3.432 1.029,-1.128 1.274,-2.304 1.274,-3.187 0,-1.715 -1.078,-2.549 -1.078,-2.549 0.196,0.392 0.245,0.736 0.245,1.03 0,0.245 -0.049,0.441 -0.049,0.441 -0.932,-2.206 -3.088,-3.726 -3.235,-5.589 -0.147,0.442 -0.196,0.883 -0.196,1.275 0,1.569 0.98,2.549 0.98,2.549 -1.912,-1.324 -2.353,-2.843 -2.353,-4.02 0,-1.176 0.49,-2.059 0.49,-2.059 -0.098,0.442 -0.049,1.177 0.049,1.765 0.196,-1.666 1.03,-3.725 3.333,-5.049 -4.019,0 -5.686,4.804 -4.019,7.843 -2.794,-0.735 -3.137,-3.627 -3.186,-5.294 -0.196,0.883 -0.245,1.569 -0.245,2.108 0,2.99 2.499,3.775 4.362,4.608 2.745,1.226 3.873,2.206 3.873,3.971 0,1.863 -2.206,3.039 -3.824,2.696 l 0.589,-0.588 c 0.098,-0.098 0.245,-0.196 0.245,-0.196 1.715,-0.883 1.96,-1.863 1.96,-2.451 0,-1.569 -1.764,-2.403 -3.039,-2.942 -4.117,-1.765 -4.853,-2.549 -4.853,-5.098 0,-1.863 0.54,-4.804 -1.422,-5.049 0.147,-0.245 0.834,-0.343 0.834,-0.343 -0.589,-0.491 -1.226,-0.638 -1.961,-0.638 -0.686,0 -2.059,0.197 -2.451,1.667 0.392,-0.245 0.932,-0.539 1.765,-0.539 m 3.137,10.785 c -0.196,-0.197 -0.392,-0.197 -0.49,-0.197 -0.098,0.246 0,0.589 0,0.589 0.196,0 0.49,-0.147 0.49,-0.392 m -0.539,0.637 c -0.196,-0.294 -0.343,-0.686 -0.932,-0.686 -0.588,0 -1.078,0.441 -1.47,0.441 -0.196,0 -0.294,-0.049 -0.392,-0.049 -0.098,0 -0.147,0.049 -0.147,0.098 0,0.147 0.195,0.294 0.489,0.294 0.295,0 0.54,-0.147 0.981,-0.245 0.637,-0.196 1.03,0.343 1.275,0.539 0.294,0.245 0.539,0.294 0.784,0.294 0.49,0 0.834,-0.245 0.834,-0.245 -0.245,0 -0.785,-0.245 -1.177,-0.49 -0.147,0.049 -0.196,0.098 -0.245,0.049 m -1.03,1.471 c 0.098,0.049 0.441,0.098 0.441,0.098 0.099,-0.197 0.099,-0.54 0.049,-0.834 -0.441,0 -0.588,0.441 -0.49,0.736 M 5.098,26.962 C 6.912,26.569 6.667,25.393 7.01,24.56 6.226,25.54 5.196,26.177 5.196,26.177 5.294,26.618 5.098,26.962 5.098,26.962 m 2.304,-9.265 c 0,-2.059 -2.647,-2.304 -2.647,-4.314 0,-0.785 0.245,-1.324 0.098,-1.814 0,0 0.539,0.588 0.588,1.029 0,-1.519 0.785,-3.284 2.794,-3.284 0.294,0 0.735,0.049 1.128,0.294 0,0 -0.098,-1.422 -1.715,-1.422 -2.06,0 -3.923,1.716 -3.923,4.903 0,0.588 0.098,1.274 0.441,1.764 0,0 -0.98,-0.539 -1.078,-2.255 0,0 -0.392,0.589 -0.392,1.324 0,2.451 2.99,1.569 4.706,3.775 M 7.206,7.304 c 1.813,0 2.745,0.932 2.745,2.353 0,0.49 -0.147,0.833 -0.147,0.833 C 9.314,10.098 8.725,10 8.382,10 c -0.734,0 -1.715,0.441 -1.715,1.618 0,1.52 1.617,2.304 1.617,4.02 0,0.49 -0.196,0.686 -0.196,0.686 0.735,0.98 0.98,1.912 0.98,2.647 0,1.373 -0.735,2.255 -0.735,2.255 l 0.784,-0.392 c -0.343,1.324 -1.078,2.206 -1.078,2.206 0,0 0.392,-0.196 0.588,-0.098 -0.392,0.196 -0.979,0.931 -0.979,2.255 0,1.323 -0.295,2.059 -2.844,2.5 C 4.51,28.285 3.823,28.922 3.48,29.119 2.892,28.824 2.01,28.481 1.716,28.236 c 0,0 -0.736,-0.049 -1.03,-0.049 -0.441,0 -0.784,0.147 -0.98,0.147 -0.589,0 -0.981,-0.588 -0.981,-0.588 0,0 -1.323,-0.049 -2.254,-0.245 -0.491,-0.098 -0.785,-0.49 -1.128,-1.324 L -7.06,24.854 c -0.44,-0.245 -0.734,-0.393 -0.734,-0.785 0,-0.196 0.147,-0.539 0.44,-0.98 0.245,-1.471 0.491,-1.716 0.834,-1.716 0.098,0 0.294,0.049 0.294,0.049 0.098,-0.098 0.343,-0.49 0.392,-0.637 -0.392,-0.196 -0.882,0.245 -1.471,0.245 -0.342,0 -0.882,-0.196 -0.882,-0.784 0,-0.196 0.098,-0.245 0.197,-0.245 0.146,0 0.294,0.049 0.636,0.049 0.442,0 0.785,-0.393 1.471,-0.393 0.245,0 0.392,0.049 0.49,0 -0.343,-0.245 -0.539,-0.392 -0.441,-0.735 0.147,-0.637 0.736,-1.372 1.03,-1.372 0.245,0 0.686,0.147 0.686,0.147 l -0.294,-0.246 c -1.961,-1.666 -1.52,-3.529 -1.52,-5.392 0,-1.421 -0.392,-2.304 -1.519,-2.304 -0.736,0 -1.765,0.441 -2.549,1.422 -0.098,-0.294 -0.147,-0.736 -0.147,-1.128 0,-1.715 1.569,-2.843 3.137,-2.843 1.372,0 2.353,0.392 3.334,1.177 C -0.883,8.432 0,10.294 0,10.294 1.324,8.383 3.774,8.53 4.166,8.53 5,7.647 6.275,7.304 7.206,7.304 m -8.138,4.167 c 0,-1.52 -1.274,-2.206 -2.597,-2.206 1.715,1.863 0.392,4.559 2.058,6.324 -0.147,-1.569 0.539,-3.04 0.539,-4.118 M -2.745,24.02 h 0.049 c 0.245,-0.931 1.323,-1.029 1.568,-2.108 l -0.049,-0.049 c -0.539,0.785 -1.274,0.883 -1.568,1.275 -0.147,0.196 -0.147,0.441 0,0.882 m 5,-22.745 c 0,-0.05 -0.294,-0.393 -0.343,-0.393 -0.049,0 -0.343,0.343 -0.343,0.393 0,0.098 0.294,0.392 0.343,0.392 0.049,0 0.343,-0.294 0.343,-0.392 M 6.03,1.176 c 0,-0.049 -0.295,-0.392 -0.344,-0.392 -0.049,0 -0.343,0.343 -0.343,0.392 0,0.099 0.294,0.393 0.343,0.393 0.049,0 0.344,-0.294 0.344,-0.393 M 4.755,0.49 c 0.098,0 0.196,0.049 0.196,0.196 V 1.765 C 4.951,1.912 4.853,1.961 4.755,1.961 4.166,2.01 3.235,2.059 2.843,2.059 2.696,2.059 2.598,1.961 2.598,1.814 V 0.735 C 2.598,0.588 2.696,0.49 2.843,0.49 M 0.931,0.441 c 0.147,0 0.246,0.098 0.246,0.245 v 1.177 c 0,0.147 -0.099,0.245 -0.246,0.245 h -1.863 c -0.147,0 -0.245,-0.098 -0.245,-0.245 V 0.686 c 0,-0.147 0.098,-0.245 0.245,-0.245 m -1.323,0.834 c 0,0.098 0.294,0.392 0.343,0.392 0.049,0 0.343,-0.294 0.343,-0.392 0,-0.05 -0.294,-0.393 -0.343,-0.393 -0.049,0 -0.343,0.343 -0.343,0.393 M -6.03,1.176 c 0,0.099 0.294,0.393 0.343,0.393 0.049,0 0.344,-0.294 0.344,-0.393 0,-0.049 -0.295,-0.392 -0.344,-0.392 -0.049,0 -0.343,0.343 -0.343,0.392 M -4.755,0.49 h 1.912 c 0.147,0 0.245,0.098 0.245,0.245 v 1.079 c 0,0.147 -0.098,0.245 -0.245,0.245 -0.392,0 -1.324,-0.049 -1.912,-0.098 -0.098,0 -0.196,-0.049 -0.196,-0.196 V 0.686 c 0,-0.147 0.098,-0.196 0.196,-0.196 m 4.265,0.785 c 0,0.147 0.392,0.539 0.49,0.539 0.049,0 0.441,-0.392 0.441,-0.539 0,-0.05 -0.392,-0.491 -0.441,-0.491 -0.098,0 -0.49,0.441 -0.49,0.491 m 3.823,0 c 0,0.147 0.392,0.539 0.49,0.539 0.049,0 0.441,-0.392 0.441,-0.539 0,-0.05 -0.392,-0.491 -0.441,-0.491 -0.098,0 -0.49,0.441 -0.49,0.491 m -7.598,0 c 0,0.147 0.392,0.539 0.49,0.539 0.05,0 0.442,-0.392 0.442,-0.539 0,-0.05 -0.392,-0.491 -0.442,-0.491 -0.098,0 -0.49,0.441 -0.49,0.491"
         style="fill:#000000;fill-opacity:1;fill-rule:nonzero;stroke:none"
         transform="matrix(1.3333333,0,0,-1.3333333,917.8848,468.82452)"
         clip-path="url(#clipPath67-4-4)" />
      <path
         id="path68"
         d="M 0,0 -4.105,4.707 H -6.856 V 4.338 c 0.835,0 0.958,-0.11 0.958,-0.821 v -3.928 c 0,-1.409 -0.287,-1.546 -0.985,-1.546 v -0.37 h 2.545 v 0.37 c -0.807,0 -1.067,0.178 -1.067,1.013 v 4.639 l 5.488,-6.213 h 0.41 v 5.884 c 0,0.876 0.465,0.972 0.93,0.972 V 4.707 H -1.122 V 4.338 C -0.479,4.338 0,4.214 0,3.38"
         style="fill:#000000;fill-opacity:1;fill-rule:nonzero;stroke:none"
         transform="matrix(1.3333333,0,0,-1.3333333,998.6106,491.26039)"
         clip-path="url(#clipPath69-8-8)" />
      <path
         id="path70"
         d="m 0,0 c -1.313,0 -1.915,1.177 -1.915,3.38 0,2.203 0.602,3.38 1.915,3.38 1.314,0 1.916,-1.177 1.916,-3.38 C 1.916,1.177 1.314,0 0,0 m 0,7.088 c -1.888,0 -3.831,-1.231 -3.831,-3.708 0,-2.477 1.943,-3.709 3.831,-3.709 1.889,0 3.832,1.232 3.832,3.709 0,2.477 -1.943,3.708 -3.832,3.708"
         style="fill:#000000;fill-opacity:1;fill-rule:nonzero;stroke:none"
         transform="matrix(1.3333333,0,0,-1.3333333,983.4177,494.17986)"
         clip-path="url(#clipPath71-4-4)" />
      <path
         id="path72"
         d="m 0,0 c 0,-0.506 -0.165,-0.561 -0.89,-0.561 v -0.37 h 3.531 v 0.37 c -0.725,0 -0.89,0.055 -0.89,0.561 v 5.405 c 0,0.26 0.124,0.37 0.37,0.37 0.602,0 1.628,-0.548 2.217,-1.642 L 4.612,4.228 4.187,6.294 H 3.9 C 3.709,6.185 3.448,6.103 3.202,6.103 H -1.45 c -0.124,0 -0.247,0.014 -0.37,0.055 -0.123,0.041 -0.233,0.082 -0.328,0.136 H -2.436 L -2.86,4.228 -2.587,4.133 c 0.589,1.094 1.615,1.642 2.217,1.642 0.247,0 0.37,-0.11 0.37,-0.37"
         style="fill:#000000;fill-opacity:1;fill-rule:nonzero;stroke:none"
         transform="matrix(1.3333333,0,0,-1.3333333,971.25,493.12159)"
         clip-path="url(#clipPath73-5-5)" />
      <path
         id="path74"
         d="m 0,0 c 0,-0.506 -0.164,-0.561 -0.89,-0.561 v -0.37 H 5.76 L 6.294,1.122 H 5.966 C 4.995,-0.301 4.365,-0.561 2.682,-0.561 c -0.78,0 -0.931,0.137 -0.931,0.492 v 5.242 c 0,0.506 0.164,0.561 0.889,0.561 V 6.103 H -0.89 V 5.734 C -0.164,5.734 0,5.679 0,5.173"
         style="fill:#000000;fill-opacity:1;fill-rule:nonzero;stroke:none"
         transform="matrix(1.3333333,0,0,-1.3333333,959.9472,493.12159)"
         clip-path="url(#clipPath75-7-7)" />
      <path
         id="path76"
         d="m 0,0 h -0.615 v 2.942 h 0.397 c 1.45,0 1.806,-0.848 1.806,-1.478 C 1.588,0.383 0.835,0 0,0 m 3.599,-2.641 -1.163,1.806 c -0.287,0.452 -0.547,0.616 -0.916,0.63 v 0.027 c 1.135,0.069 1.82,0.657 1.82,1.533 0,0.889 -0.794,1.957 -3.066,1.957 h -3.53 v -0.37 c 0.725,0 0.889,-0.055 0.889,-0.561 v -5.172 c 0,-0.507 -0.164,-0.561 -0.889,-0.561 v -0.37 h 3.53 v 0.37 c -0.725,0 -0.889,0.054 -0.889,0.561 v 2.462 c 0.739,0 0.999,-0.095 1.19,-0.451 l 1.643,-2.942 h 2.421 v 0.37 c -0.41,0 -0.615,0.041 -1.04,0.711"
         style="fill:#000000;fill-opacity:1;fill-rule:nonzero;stroke:none"
         transform="matrix(1.3333333,0,0,-1.3333333,951.5575,489.3996)"
         clip-path="url(#clipPath77-1-1)" />
      <path
         id="path78"
         d="M 0,0 1.396,2.956 2.846,0 m 2.45,-1.081 -2.97,5.72 C 2.203,4.858 2.148,4.926 2.094,4.926 1.998,4.926 1.765,4.365 0.903,3.791 1.026,3.736 1.122,3.599 1.122,3.476 1.122,3.394 1.109,3.325 1.013,3.134 l -1.779,-3.709 c -0.452,-0.958 -0.726,-1.272 -1.396,-1.272 v -0.37 h 2.545 v 0.37 c -0.684,0 -0.958,0.191 -0.958,0.465 0,0.164 0.082,0.438 0.411,0.971 h 3.202 c 0.437,-0.67 0.52,-1.026 0.52,-1.136 0,-0.232 -0.219,-0.3 -0.958,-0.3 v -0.37 h 3.818 v 0.37 c -0.616,0 -0.794,0.136 -1.122,0.766"
         style="fill:#000000;fill-opacity:1;fill-rule:nonzero;stroke:none"
         transform="matrix(1.3333333,0,0,-1.3333333,937.5528,491.40652)"
         clip-path="url(#clipPath79-2-2)" />
      <path
         id="path80"
         d="m 0,0 c -0.616,-1.272 -1.546,-2.244 -2.71,-2.244 -1.067,0 -2.258,0.821 -2.258,3.339 0,2.313 0.958,3.339 2.327,3.339 1.286,0 2.08,-0.862 2.641,-1.916 H 0.287 V 4.721 H 0.041 c -0.11,-0.178 -0.343,-0.287 -0.535,-0.287 -0.41,0 -1.285,0.369 -2.326,0.369 -2.503,0 -4.064,-1.656 -4.064,-3.831 0,-1.957 1.602,-3.586 3.873,-3.586 1.286,0 2.203,0.48 2.517,0.48 0.247,0 0.411,-0.165 0.535,-0.48 H 0.287 V 0"
         style="fill:#000000;fill-opacity:1;fill-rule:nonzero;stroke:none"
         transform="matrix(1.3333333,0,0,-1.3333333,932.957,491.13306)"
         clip-path="url(#clipPath81-6-6)" />
      <path
         id="path82"
         d="M 0,0 H 6.131 L 6.869,2.121 H 6.582 C 5.556,0.753 4.926,0.329 3.914,0.329 H 2.19 L 6.637,6.842 V 7.034 H 0.602 L -0.055,5.063 h 0.247 c 0.807,1.067 1.655,1.601 2.6,1.601 H 4.406 L 0,0.247"
         style="fill:#000000;fill-opacity:1;fill-rule:nonzero;stroke:none"
         transform="matrix(1.3333333,0,0,-1.3333333,904.0305,494.3624)"
         clip-path="url(#clipPath83-4-4)" />
      <path
         id="path84"
         d="m 0,0 c 0,-0.506 -0.164,-0.561 -0.889,-0.561 v -0.37 h 3.53 v 0.37 C 1.916,-0.561 1.752,-0.506 1.752,0 v 5.405 c 0,0.26 0.123,0.37 0.369,0.37 0.602,0 1.629,-0.548 2.217,-1.642 L 4.612,4.228 4.187,6.294 H 3.9 C 3.708,6.185 3.448,6.103 3.202,6.103 h -4.653 c -0.123,0 -0.246,0.014 -0.369,0.055 -0.123,0.041 -0.233,0.082 -0.328,0.136 H -2.436 L -2.86,4.228 -2.586,4.133 c 0.588,1.094 1.615,1.642 2.216,1.642 0.247,0 0.37,-0.11 0.37,-0.37"
         style="fill:#000000;fill-opacity:1;fill-rule:nonzero;stroke:none"
         transform="matrix(1.3333333,0,0,-1.3333333,896.7638,493.12159)"
         clip-path="url(#clipPath85-3-3)" />
      <path
         id="path86"
         d="m 0,0 c 0,-0.506 -0.164,-0.561 -0.889,-0.561 v -0.37 h 3.53 v 0.37 C 1.916,-0.561 1.752,-0.506 1.752,0 v 5.173 c 0,0.506 0.164,0.561 0.889,0.561 v 0.369 h -3.53 V 5.734 C -0.164,5.734 0,5.679 0,5.173"
         style="fill:#000000;fill-opacity:1;fill-rule:nonzero;stroke:none"
         transform="matrix(1.3333333,0,0,-1.3333333,888.2567,493.12159)"
         clip-path="url(#clipPath87-2-2)" />
      <path
         id="path88"
         d="m 0,0 h -0.616 v 2.942 h 0.397 c 1.45,0 1.806,-0.848 1.806,-1.478 C 1.587,0.383 0.835,0 0,0 m 3.599,-2.641 -1.163,1.806 c -0.288,0.452 -0.548,0.616 -0.917,0.63 v 0.027 c 1.136,0.069 1.82,0.657 1.82,1.533 0,0.889 -0.794,1.957 -3.066,1.957 h -3.53 v -0.37 c 0.725,0 0.89,-0.055 0.89,-0.561 v -5.172 c 0,-0.507 -0.165,-0.561 -0.89,-0.561 v -0.37 h 3.53 v 0.37 c -0.725,0 -0.889,0.054 -0.889,0.561 v 2.462 c 0.739,0 0.999,-0.095 1.191,-0.451 l 1.642,-2.942 h 2.422 v 0.37 c -0.411,0 -0.616,0.041 -1.04,0.711"
         style="fill:#000000;fill-opacity:1;fill-rule:nonzero;stroke:none"
         transform="matrix(1.3333333,0,0,-1.3333333,879.6516,489.3996)"
         clip-path="url(#clipPath89-6-6)" />
      <path
         id="path90"
         d="m 0,0 c 0,-0.506 -0.164,-0.561 -0.889,-0.561 v -0.37 H 5.61 L 6.158,1.122 H 5.829 c -0.793,-1.314 -1.587,-1.683 -3.01,-1.683 -0.944,0 -1.067,0.137 -1.067,0.424 V 2.531 H 2.217 C 3.49,2.531 4.064,2.19 4.27,1.191 H 4.557 V 4.324 H 4.27 C 3.982,3.284 3.517,2.901 2.217,2.901 H 1.752 v 2.381 c 0,0.397 0.123,0.452 0.643,0.452 1.587,0 2.34,-0.438 3.339,-1.56 H 6.021 L 5.323,6.103 H -0.889 V 5.734 C -0.164,5.734 0,5.679 0,5.173"
         style="fill:#000000;fill-opacity:1;fill-rule:nonzero;stroke:none"
         transform="matrix(1.3333333,0,0,-1.3333333,860.3906,493.12159)"
         clip-path="url(#clipPath91-5-5)" />
      <path
         id="path92"
         d="m 0,0 c 0,-0.506 -0.164,-0.561 -0.889,-0.561 v -0.37 h 3.53 v 0.37 C 1.916,-0.561 1.752,-0.506 1.752,0 v 5.173 c 0,0.506 0.164,0.561 0.889,0.561 v 0.369 h -3.53 V 5.734 C -0.164,5.734 0,5.679 0,5.173 V 3.024 h -3.585 v 2.149 c 0,0.506 0.164,0.561 0.889,0.561 v 0.369 h -3.53 V 5.734 c 0.725,0 0.889,-0.055 0.889,-0.561 V 0 c 0,-0.506 -0.164,-0.561 -0.889,-0.561 v -0.37 h 3.53 v 0.37 c -0.725,0 -0.889,0.055 -0.889,0.561 V 2.531 H 0"
         style="fill:#000000;fill-opacity:1;fill-rule:nonzero;stroke:none"
         transform="matrix(1.3333333,0,0,-1.3333333,854.1912,493.12159)"
         clip-path="url(#clipPath93-6-6)" />
      <path
         id="path94"
         d="m 0,0 c 0,-0.506 -0.164,-0.561 -0.889,-0.561 v -0.37 h 3.53 v 0.37 C 1.916,-0.561 1.752,-0.506 1.752,0 v 5.405 c 0,0.26 0.123,0.37 0.369,0.37 0.602,0 1.628,-0.548 2.217,-1.642 L 4.611,4.228 4.187,6.294 H 3.9 C 3.708,6.185 3.448,6.103 3.202,6.103 h -4.653 c -0.123,0 -0.246,0.014 -0.369,0.055 -0.123,0.041 -0.233,0.082 -0.329,0.136 H -2.436 L -2.86,4.228 -2.586,4.133 c 0.588,1.094 1.614,1.642 2.216,1.642 0.247,0 0.37,-0.11 0.37,-0.37"
         style="fill:#000000;fill-opacity:1;fill-rule:nonzero;stroke:none"
         transform="matrix(1.3333333,0,0,-1.3333333,838.8133,493.12159)"
         clip-path="url(#clipPath95-8-8)" />
      <path
         id="path96"
         d="M 0,0 H 2.352 L 3.34,1.423 H 0.988"
         style="fill:#000000;fill-opacity:1;fill-rule:nonzero;stroke:none"
         transform="matrix(1.3333333,0,0,-1.3333333,916.2003,490.34759)"
         clip-path="url(#clipPath97-2-2)" />
    </g>
  </g>
</svg>
